<svg width="168" height="22" viewBox="0 0 168 22" fill="none" xmlns="http://www.w3.org/2000/svg">
<rect y="1" width="24" height="5" rx="1" fill="#00CD18"/>
<rect y="9" width="24" height="5" rx="1" fill="#0D5DFF"/>
<rect y="17" width="24" height="5" rx="1" fill="#FFA600"/>
<path d="M50.121 21.5165H45.9284V12.4203C45.9284 11.3324 45.7537 10.4863 45.4043 9.91209C45.0549 9.33791 44.3561 9.03571 43.3662 9.03571C41.1826 9.03571 40.1053 10.4258 40.1053 13.1456V21.5165H36V5.92308H39.9306V8.0989C41.1534 6.37637 42.813 5.5 44.9093 5.5C46.5107 5.5 47.7918 5.98352 48.7235 6.95055C49.6552 7.91758 50.121 9.30769 50.121 11.0907V21.5165Z" fill="#F1F1F1"/>
<path d="M67.3508 16.6813C66.8849 18.3736 66.0115 19.6731 64.7595 20.5797C63.5075 21.5165 62.0226 21.9698 60.2757 21.9698C57.9756 21.9698 56.1122 21.2445 54.7147 19.7335C53.3171 18.2527 52.6183 16.2885 52.6183 13.8104C52.6183 11.3929 53.3171 9.39835 54.7438 7.82692C56.1413 6.2555 57.9465 5.46978 60.1592 5.46978C62.4303 5.46978 64.2354 6.28571 65.5747 7.88736C66.914 9.48901 67.5837 11.6648 67.5837 14.3846V14.8077H56.811C56.811 16.1676 57.1312 17.1951 57.7427 17.8901C58.3541 18.6154 59.2276 18.9478 60.3339 18.9478C61.7897 18.9478 62.8088 18.1923 63.3911 16.6813H67.3508ZM63.362 12.0879C63.2746 11.0604 62.9543 10.2445 62.4011 9.57967C61.8771 8.91483 61.1201 8.58242 60.1301 8.58242C59.2276 8.58242 58.4705 8.91483 57.8591 9.51923C57.2768 10.1538 56.8983 11 56.7819 12.0879H63.362Z" fill="#F1F1F1"/>
<path d="M84.0403 5.92308V21.5165H80.1097V19.3104C78.9451 21.0934 77.3146 21.9698 75.2183 21.9698C73.5587 21.9698 72.2776 21.5165 71.346 20.5797C70.4143 19.6429 69.9775 18.2527 69.9775 16.4093V5.92308H74.141V14.8379C74.141 15.4423 74.141 15.8956 74.1993 16.2582C74.2575 16.6209 74.3449 16.9533 74.5195 17.3159C74.6651 17.6786 74.9272 17.9505 75.2766 18.1319C75.6259 18.3132 76.0918 18.3736 76.6741 18.3736C78.8286 18.3736 79.935 16.9231 79.935 13.9615V5.92308H84.0403Z" fill="#F1F1F1"/>
<path d="M96.961 5.6511V9.60989C96.3787 9.48901 95.8255 9.42857 95.3596 9.42857C93.9912 9.42857 93.0013 9.88187 92.3607 10.7885C91.7202 11.6951 91.3999 12.8736 91.3999 14.3846V21.5165H87.2655V5.92308H91.1961V8.79395C92.186 6.64835 93.7874 5.56044 96.0584 5.56044C96.2331 5.56044 96.5534 5.59066 96.961 5.6511Z" fill="#F1F1F1"/>
<path d="M105.407 5.46978C107.707 5.46978 109.571 6.22527 110.968 7.73626C112.366 9.24725 113.094 11.2418 113.094 13.7198C113.094 16.228 112.366 18.2225 110.968 19.7335C109.571 21.2445 107.678 22 105.349 22C102.991 22 101.098 21.2445 99.7006 19.7335C98.2739 18.2225 97.5751 16.228 97.5751 13.7198C97.5751 11.2418 98.2739 9.24725 99.7297 7.73626C101.156 6.22527 103.049 5.46978 105.407 5.46978ZM105.291 8.73352C104.184 8.73352 103.311 9.18681 102.67 10.0934C102.03 10.9698 101.71 12.1786 101.71 13.75C101.71 15.3214 102.03 16.5604 102.67 17.467C103.311 18.3434 104.184 18.7967 105.349 18.7967C106.484 18.7967 107.358 18.3434 107.998 17.4368C108.639 16.5302 108.959 15.2912 108.959 13.6896C108.959 12.1484 108.61 10.9396 107.969 10.0632C107.329 9.18681 106.426 8.73352 105.291 8.73352Z" fill="#F1F1F1"/>
<path d="M114.384 5.92308H118.781L121.576 16.5302L124.109 5.92308H128.098L130.718 16.4698L133.513 5.92308H137.735L132.989 21.5165H128.738L126.06 11.0302L123.468 21.5165H119.188L114.384 5.92308Z" fill="#F1F1F1"/>
<path d="M143.775 0V3.62637H139.641V0H143.775ZM143.775 5.92308V21.5165H139.641V5.92308H143.775Z" fill="#F1F1F1"/>
<path d="M161.617 5.92308L155.969 11.6951L162.287 21.5165H157.279L153.145 14.5962L151.456 16.228V21.5165H147.409V0H151.456V11.5137L156.755 5.92308H161.617Z" fill="#F1F1F1"/>
<path d="M168 0V3.62637H163.866V0H168ZM168 5.92308V21.5165H163.866V5.92308H168Z" fill="#F1F1F1"/>
</svg>
